<svg version="1.1" xmlns="http://www.w3.org/2000/svg" xmlns:xlink="http://www.w3.org/1999/xlink" width="749.2" height="695"><style xmlns="http://www.w3.org/1999/xhtml"></style><defs/><g transform="translate(0,0)"><g><rect fill="rgb(0,0,0)" stroke="none" x="0" y="0" width="749.2" height="695" fill-opacity="0"/></g><g transform="translate(0,0) matrix(1,0,0,1,40,60)"><g><g transform="translate(0,0) scale(3.6,0.75)"><g><path fill="#d9ead3" stroke="none" d="M 0 0 L 100 0 Q 100 0 100 0 L 100 100 Q 100 100 100 100 L 0 100 Q 0 100 0 100 L 0 0 Q 0 0 0 0 Z"/><g transform="scale(0.2777777777777778,1.3333333333333333)"><path fill="none" stroke="none" d="M 0 0 L 360 0 Q 360 0 360 0 L 360 75 Q 360 75 360 75 L 0 75 Q 0 75 0 75 L 0 0 Q 0 0 0 0 Z"/><path fill="none" stroke="#333333" d="M 0 0 M 0 0 L 360 0 Q 360 0 360 0 L 360 75 Q 360 75 360 75 L 0 75 Q 0 75 0 75 L 0 0 Q 0 0 0 0 Z" stroke-miterlimit="10" stroke-width="2"/></g></g></g></g></g><g transform="matrix(1,0,0,1,50,84)"><g transform="translate(112,-1) matrix(1,0,0,1,0,0) translate(-112,1)"><g/></g><g transform="translate(112,-1) matrix(1,0,0,1,0,0) translate(-112,1)"><g/></g><g transform="translate(112,-1) matrix(1,0,0,1,0,0) translate(-112,1)"><g/><text fill="rgb(0, 0, 0)" stroke="none" font-family="&quot;Arial&quot;" font-size="24px" font-style="normal" font-weight="normal" text-decoration="" line-height="27px" x="112" y="21">Application</text></g></g><g transform="translate(0,0) matrix(1,0,0,1,40,150)"><g><g transform="translate(0,0) scale(3.6,0.75)"><g><path fill="#d9ead3" stroke="none" d="M 0 0 L 100 0 Q 100 0 100 0 L 100 100 Q 100 100 100 100 L 0 100 Q 0 100 0 100 L 0 0 Q 0 0 0 0 Z"/><g transform="scale(0.2777777777777778,1.3333333333333333)"><path fill="none" stroke="none" d="M 0 0 L 360 0 Q 360 0 360 0 L 360 75 Q 360 75 360 75 L 0 75 Q 0 75 0 75 L 0 0 Q 0 0 0 0 Z"/><path fill="none" stroke="#333333" d="M 0 0 M 0 0 L 360 0 Q 360 0 360 0 L 360 75 Q 360 75 360 75 L 0 75 Q 0 75 0 75 L 0 0 Q 0 0 0 0 Z" stroke-miterlimit="10" stroke-width="2"/></g></g></g></g></g><g transform="matrix(1,0,0,1,50,174)"><g transform="translate(103,-1) matrix(1,0,0,1,0,0) translate(-103,1)"><g/></g><g transform="translate(103,-1) matrix(1,0,0,1,0,0) translate(-103,1)"><g/></g><g transform="translate(103,-1) matrix(1,0,0,1,0,0) translate(-103,1)"><g/><text fill="rgb(0, 0, 0)" stroke="none" font-family="&quot;Arial&quot;" font-size="24px" font-style="normal" font-weight="normal" text-decoration="" line-height="27px" x="103" y="21">Presentation</text></g></g><g transform="translate(0,0) matrix(1,0,0,1,40,600)"><g><g transform="translate(0,0) scale(3.6,0.75)"><g><path fill="#d9ead3" stroke="none" d="M 0 0 L 100 0 Q 100 0 100 0 L 100 100 Q 100 100 100 100 L 0 100 Q 0 100 0 100 L 0 0 Q 0 0 0 0 Z"/><g transform="scale(0.2777777777777778,1.3333333333333333)"><path fill="none" stroke="none" d="M 0 0 L 360 0 Q 360 0 360 0 L 360 75 Q 360 75 360 75 L 0 75 Q 0 75 0 75 L 0 0 Q 0 0 0 0 Z"/><path fill="none" stroke="#333333" d="M 0 0 M 0 0 L 360 0 Q 360 0 360 0 L 360 75 Q 360 75 360 75 L 0 75 Q 0 75 0 75 L 0 0 Q 0 0 0 0 Z" stroke-miterlimit="10" stroke-width="2"/></g></g></g></g></g><g transform="matrix(1,0,0,1,50,624)"><g transform="translate(126,-1) matrix(1,0,0,1,0,0) translate(-126,1)"><g/></g><g transform="translate(126,-1) matrix(1,0,0,1,0,0) translate(-126,1)"><g/></g><g transform="translate(126,-1) matrix(1,0,0,1,0,0) translate(-126,1)"><g/><text fill="rgb(0, 0, 0)" stroke="none" font-family="&quot;Arial&quot;" font-size="24px" font-style="normal" font-weight="normal" text-decoration="" line-height="27px" x="126" y="21">Physical</text></g></g><g transform="translate(0,0) matrix(1,0,0,1,40,510)"><g><g transform="translate(0,0) scale(3.6,0.75)"><g><path fill="#d9ead3" stroke="none" d="M 0 0 L 100 0 Q 100 0 100 0 L 100 100 Q 100 100 100 100 L 0 100 Q 0 100 0 100 L 0 0 Q 0 0 0 0 Z"/><g transform="scale(0.2777777777777778,1.3333333333333333)"><path fill="none" stroke="none" d="M 0 0 L 360 0 Q 360 0 360 0 L 360 75 Q 360 75 360 75 L 0 75 Q 0 75 0 75 L 0 0 Q 0 0 0 0 Z"/><path fill="none" stroke="#333333" d="M 0 0 M 0 0 L 360 0 Q 360 0 360 0 L 360 75 Q 360 75 360 75 L 0 75 Q 0 75 0 75 L 0 0 Q 0 0 0 0 Z" stroke-miterlimit="10" stroke-width="2"/></g></g></g></g></g><g transform="matrix(1,0,0,1,50,534)"><g transform="translate(120,-1) matrix(1,0,0,1,0,0) translate(-120,1)"><g/></g><g transform="translate(120,-1) matrix(1,0,0,1,0,0) translate(-120,1)"><g/></g><g transform="translate(120,-1) matrix(1,0,0,1,0,0) translate(-120,1)"><g/><text fill="rgb(0, 0, 0)" stroke="none" font-family="&quot;Arial&quot;" font-size="24px" font-style="normal" font-weight="normal" text-decoration="" line-height="27px" x="120" y="21">Data</text><text fill="rgb(0, 0, 0)" stroke="none" font-family="&quot;Arial&quot;" font-size="24px" font-style="normal" font-weight="normal" text-decoration="" line-height="27px" x="177" y="21">Link</text></g></g><g transform="translate(0,0) matrix(1,0,0,1,40,420)"><g><g transform="translate(0,0) scale(3.6,0.75)"><g><path fill="#d9ead3" stroke="none" d="M 0 0 L 100 0 Q 100 0 100 0 L 100 100 Q 100 100 100 100 L 0 100 Q 0 100 0 100 L 0 0 Q 0 0 0 0 Z"/><g transform="scale(0.2777777777777778,1.3333333333333333)"><path fill="none" stroke="none" d="M 0 0 L 360 0 Q 360 0 360 0 L 360 75 Q 360 75 360 75 L 0 75 Q 0 75 0 75 L 0 0 Q 0 0 0 0 Z"/><path fill="none" stroke="#333333" d="M 0 0 M 0 0 L 360 0 Q 360 0 360 0 L 360 75 Q 360 75 360 75 L 0 75 Q 0 75 0 75 L 0 0 Q 0 0 0 0 Z" stroke-miterlimit="10" stroke-width="2"/></g></g></g></g></g><g transform="matrix(1,0,0,1,50,444)"><g transform="translate(126,-1) matrix(1,0,0,1,0,0) translate(-126,1)"><g/></g><g transform="translate(126,-1) matrix(1,0,0,1,0,0) translate(-126,1)"><g/></g><g transform="translate(126,-1) matrix(1,0,0,1,0,0) translate(-126,1)"><g/><text fill="rgb(0, 0, 0)" stroke="none" font-family="&quot;Arial&quot;" font-size="24px" font-style="normal" font-weight="normal" text-decoration="" line-height="27px" x="126" y="21">Network</text></g></g><g transform="translate(0,0) matrix(1,0,0,1,40,240)"><g><g transform="translate(0,0) scale(3.6,0.75)"><g><path fill="#b6d7a8" stroke="none" d="M 0 0 L 100 0 Q 100 0 100 0 L 100 100 Q 100 100 100 100 L 0 100 Q 0 100 0 100 L 0 0 Q 0 0 0 0 Z"/><g transform="scale(0.2777777777777778,1.3333333333333333)"><path fill="none" stroke="none" d="M 0 0 L 360 0 Q 360 0 360 0 L 360 75 Q 360 75 360 75 L 0 75 Q 0 75 0 75 L 0 0 Q 0 0 0 0 Z"/><path fill="none" stroke="#333333" d="M 0 0 M 0 0 L 360 0 Q 360 0 360 0 L 360 75 Q 360 75 360 75 L 0 75 Q 0 75 0 75 L 0 0 Q 0 0 0 0 Z" stroke-miterlimit="10" stroke-width="2"/></g></g></g></g></g><g transform="matrix(1,0,0,1,50,264)"><g transform="translate(128,-1) matrix(1,0,0,1,0,0) translate(-128,1)"><g/></g><g transform="translate(128,-1) matrix(1,0,0,1,0,0) translate(-128,1)"><g/></g><g transform="translate(128,-1) matrix(1,0,0,1,0,0) translate(-128,1)"><g/><text fill="rgb(0, 0, 0)" stroke="none" font-family="&quot;Arial&quot;" font-size="24px" font-style="normal" font-weight="normal" text-decoration="" line-height="27px" x="128" y="21">Session</text></g></g><g transform="translate(0,0) matrix(1,0,0,1,40,330)"><g><g transform="translate(0,0) scale(3.6,0.75)"><g><path fill="#d9ead3" stroke="none" d="M 0 0 L 100 0 Q 100 0 100 0 L 100 100 Q 100 100 100 100 L 0 100 Q 0 100 0 100 L 0 0 Q 0 0 0 0 Z"/><g transform="scale(0.2777777777777778,1.3333333333333333)"><path fill="none" stroke="none" d="M 0 0 L 360 0 Q 360 0 360 0 L 360 75 Q 360 75 360 75 L 0 75 Q 0 75 0 75 L 0 0 Q 0 0 0 0 Z"/><path fill="none" stroke="#333333" d="M 0 0 M 0 0 L 360 0 Q 360 0 360 0 L 360 75 Q 360 75 360 75 L 0 75 Q 0 75 0 75 L 0 0 Q 0 0 0 0 Z" stroke-miterlimit="10" stroke-width="2"/></g></g></g></g></g><g transform="matrix(1,0,0,1,50,354)"><g transform="translate(120,-1) matrix(1,0,0,1,0,0) translate(-120,1)"><g/></g><g transform="translate(120,-1) matrix(1,0,0,1,0,0) translate(-120,1)"><g/></g><g transform="translate(120,-1) matrix(1,0,0,1,0,0) translate(-120,1)"><g/><text fill="rgb(0, 0, 0)" stroke="none" font-family="&quot;Arial&quot;" font-size="24px" font-style="normal" font-weight="normal" text-decoration="" line-height="27px" x="120" y="21">Transport</text></g></g><g transform="translate(0,0) matrix(1,0,0,1,540,240)"><g><g transform="translate(0,0) scale(1.2,0.75)"><g><path fill="#ffd966" stroke="none" d="M 0 0 L 100 0 Q 100 0 100 0 L 100 100 Q 100 100 100 100 L 0 100 Q 0 100 0 100 L 0 0 Q 0 0 0 0 Z"/><g transform="scale(0.8333333333333334,1.3333333333333333)"><path fill="none" stroke="none" d="M 0 0 L 120 0 Q 120 0 120 0 L 120 75 Q 120 75 120 75 L 0 75 Q 0 75 0 75 L 0 0 Q 0 0 0 0 Z"/><path fill="none" stroke="#333333" d="M 0 0 M 0 0 L 120 0 Q 120 0 120 0 L 120 75 Q 120 75 120 75 L 0 75 Q 0 75 0 75 L 0 0 Q 0 0 0 0 Z" stroke-miterlimit="10" stroke-width="2"/></g></g></g></g></g><g transform="matrix(1,0,0,1,549,264)"><g transform="translate(167,39) matrix(1,0,0,1,0,0) translate(-167,-39)"><g/></g><g transform="translate(167,39) matrix(1,0,0,1,0,0) translate(-167,-39)"><g/></g><g transform="translate(167,39) matrix(1,0,0,1,0,0) translate(-167,-39)"><g/></g><g transform="translate(167,39) matrix(1,0,0,1,0,0) translate(-167,-39)"><g/></g><g transform="translate(167,39) matrix(1,0,0,1,0,0) translate(-167,-39)"><g/><text fill="rgb(0, 0, 0)" stroke="none" font-family="&quot;Arial&quot;" font-size="24px" font-style="normal" font-weight="normal" text-decoration="" line-height="27px" x="32" y="21">SIP</text></g><g transform="translate(167,39) matrix(1,0,0,1,0,0) translate(-167,-39)"><g/></g></g><g transform="translate(0,0) matrix(1,0,0,1,420,330)"><g><g transform="translate(0,0) scale(1.2,0.75)"><g><path fill="#c27ba0" stroke="none" d="M 0 0 L 100 0 Q 100 0 100 0 L 100 100 Q 100 100 100 100 L 0 100 Q 0 100 0 100 L 0 0 Q 0 0 0 0 Z"/><g transform="scale(0.8333333333333334,1.3333333333333333)"><path fill="none" stroke="none" d="M 0 0 L 120 0 Q 120 0 120 0 L 120 75 Q 120 75 120 75 L 0 75 Q 0 75 0 75 L 0 0 Q 0 0 0 0 Z"/><path fill="none" stroke="#333333" d="M 0 0 M 0 0 L 120 0 Q 120 0 120 0 L 120 75 Q 120 75 120 75 L 0 75 Q 0 75 0 75 L 0 0 Q 0 0 0 0 Z" stroke-miterlimit="10" stroke-width="2"/></g></g></g></g></g><g transform="matrix(1,0,0,1,429,354)"><g transform="translate(156,39) matrix(1,0,0,1,0,0) translate(-156,-39)"><g/></g><g transform="translate(156,39) matrix(1,0,0,1,0,0) translate(-156,-39)"><g/></g><g transform="translate(156,39) matrix(1,0,0,1,0,0) translate(-156,-39)"><g/></g><g transform="translate(156,39) matrix(1,0,0,1,0,0) translate(-156,-39)"><g/></g><g transform="translate(156,39) matrix(1,0,0,1,0,0) translate(-156,-39)"><g/><text fill="rgb(0, 0, 0)" stroke="none" font-family="&quot;Arial&quot;" font-size="24px" font-style="normal" font-weight="normal" text-decoration="" line-height="27px" x="27" y="21">TCP</text></g><g transform="translate(156,39) matrix(1,0,0,1,0,0) translate(-156,-39)"><g/></g></g><g transform="translate(0,0) matrix(1,0,0,1,540,330)"><g><g transform="translate(0,0) scale(1.2,0.75)"><g><path fill="#ea9999" stroke="none" d="M 0 0 L 100 0 Q 100 0 100 0 L 100 100 Q 100 100 100 100 L 0 100 Q 0 100 0 100 L 0 0 Q 0 0 0 0 Z"/><g transform="scale(0.8333333333333334,1.3333333333333333)"><path fill="none" stroke="none" d="M 0 0 L 120 0 Q 120 0 120 0 L 120 75 Q 120 75 120 75 L 0 75 Q 0 75 0 75 L 0 0 Q 0 0 0 0 Z"/><path fill="none" stroke="#333333" d="M 0 0 M 0 0 L 120 0 Q 120 0 120 0 L 120 75 Q 120 75 120 75 L 0 75 Q 0 75 0 75 L 0 0 Q 0 0 0 0 Z" stroke-miterlimit="10" stroke-width="2"/></g></g></g></g></g><g transform="matrix(1,0,0,1,550,354)"><g transform="translate(150,39) matrix(1,0,0,1,0,0) translate(-150,-39)"><g/></g><g transform="translate(150,39) matrix(1,0,0,1,0,0) translate(-150,-39)"><g/></g><g transform="translate(150,39) matrix(1,0,0,1,0,0) translate(-150,-39)"><g/></g><g transform="translate(150,39) matrix(1,0,0,1,0,0) translate(-150,-39)"><g/></g><g transform="translate(150,39) matrix(1,0,0,1,0,0) translate(-150,-39)"><g/><text fill="rgb(0, 0, 0)" stroke="none" font-family="&quot;Arial&quot;" font-size="24px" font-style="normal" font-weight="normal" text-decoration="" line-height="27px" x="25" y="21">UDP</text></g><g transform="translate(150,39) matrix(1,0,0,1,0,0) translate(-150,-39)"><g/></g></g><g transform="translate(0,0) matrix(1,0,0,1,420,420)"><g><g transform="translate(0,0) scale(1.2,0.75)"><g><path fill="#9fc5e8" stroke="none" d="M 0 0 L 100 0 Q 100 0 100 0 L 100 100 Q 100 100 100 100 L 0 100 Q 0 100 0 100 L 0 0 Q 0 0 0 0 Z"/><g transform="scale(0.8333333333333334,1.3333333333333333)"><path fill="none" stroke="none" d="M 0 0 L 120 0 Q 120 0 120 0 L 120 75 Q 120 75 120 75 L 0 75 Q 0 75 0 75 L 0 0 Q 0 0 0 0 Z"/><path fill="none" stroke="#333333" d="M 0 0 M 0 0 L 120 0 Q 120 0 120 0 L 120 75 Q 120 75 120 75 L 0 75 Q 0 75 0 75 L 0 0 Q 0 0 0 0 Z" stroke-miterlimit="10" stroke-width="2"/></g></g></g></g></g><g transform="matrix(1,0,0,1,430,444)"><g transform="translate(146,39) matrix(1,0,0,1,0,0) translate(-146,-39)"><g/></g><g transform="translate(146,39) matrix(1,0,0,1,0,0) translate(-146,-39)"><g/></g><g transform="translate(146,39) matrix(1,0,0,1,0,0) translate(-146,-39)"><g/></g><g transform="translate(146,39) matrix(1,0,0,1,0,0) translate(-146,-39)"><g/></g><g transform="translate(146,39) matrix(1,0,0,1,0,0) translate(-146,-39)"><g/><text fill="rgb(0, 0, 0)" stroke="none" font-family="&quot;Arial&quot;" font-size="24px" font-style="normal" font-weight="normal" text-decoration="" line-height="27px" x="23" y="21">IP</text><text fill="rgb(0, 0, 0)" stroke="none" font-family="&quot;Arial&quot;" font-size="24px" font-style="normal" font-weight="normal" text-decoration="" line-height="27px" x="52" y="21">v4</text></g><g transform="translate(146,39) matrix(1,0,0,1,0,0) translate(-146,-39)"><g/></g></g><g transform="translate(0,0) matrix(1,0,0,1,540,420)"><g><g transform="translate(0,0) scale(1.2,0.75)"><g><path fill="#76a5af" stroke="none" d="M 0 0 L 100 0 Q 100 0 100 0 L 100 100 Q 100 100 100 100 L 0 100 Q 0 100 0 100 L 0 0 Q 0 0 0 0 Z"/><g transform="scale(0.8333333333333334,1.3333333333333333)"><path fill="none" stroke="none" d="M 0 0 L 120 0 Q 120 0 120 0 L 120 75 Q 120 75 120 75 L 0 75 Q 0 75 0 75 L 0 0 Q 0 0 0 0 Z"/><path fill="none" stroke="#333333" d="M 0 0 M 0 0 L 120 0 Q 120 0 120 0 L 120 75 Q 120 75 120 75 L 0 75 Q 0 75 0 75 L 0 0 Q 0 0 0 0 Z" stroke-miterlimit="10" stroke-width="2"/></g></g></g></g></g><g transform="matrix(1,0,0,1,550,444)"><g transform="translate(146,39) matrix(1,0,0,1,0,0) translate(-146,-39)"><g/></g><g transform="translate(146,39) matrix(1,0,0,1,0,0) translate(-146,-39)"><g/></g><g transform="translate(146,39) matrix(1,0,0,1,0,0) translate(-146,-39)"><g/></g><g transform="translate(146,39) matrix(1,0,0,1,0,0) translate(-146,-39)"><g/></g><g transform="translate(146,39) matrix(1,0,0,1,0,0) translate(-146,-39)"><g/><text fill="rgb(0, 0, 0)" stroke="none" font-family="&quot;Arial&quot;" font-size="24px" font-style="normal" font-weight="normal" text-decoration="" line-height="27px" x="23" y="21">IP</text><text fill="rgb(0, 0, 0)" stroke="none" font-family="&quot;Arial&quot;" font-size="24px" font-style="normal" font-weight="normal" text-decoration="" line-height="27px" x="52" y="21">v6</text></g><g transform="translate(146,39) matrix(1,0,0,1,0,0) translate(-146,-39)"><g/></g></g><g transform="translate(0,0) matrix(1,0,0,1,420,240)"><g><g transform="translate(0,0) scale(1.2,0.75)"><g><path fill="#a2c4c9" stroke="none" d="M 0 0 L 100 0 Q 100 0 100 0 L 100 100 Q 100 100 100 100 L 0 100 Q 0 100 0 100 L 0 0 Q 0 0 0 0 Z"/><g transform="scale(0.8333333333333334,1.3333333333333333)"><path fill="none" stroke="none" d="M 0 0 L 120 0 Q 120 0 120 0 L 120 75 Q 120 75 120 75 L 0 75 Q 0 75 0 75 L 0 0 Q 0 0 0 0 Z"/><path fill="none" stroke="#333333" d="M 0 0 M 0 0 L 120 0 Q 120 0 120 0 L 120 75 Q 120 75 120 75 L 0 75 Q 0 75 0 75 L 0 0 Q 0 0 0 0 Z" stroke-miterlimit="10" stroke-width="2"/></g></g></g></g></g><g transform="matrix(1,0,0,1,429,264)"><g transform="translate(159,39) matrix(1,0,0,1,0,0) translate(-159,-39)"><g/></g><g transform="translate(159,39) matrix(1,0,0,1,0,0) translate(-159,-39)"><g/></g><g transform="translate(159,39) matrix(1,0,0,1,0,0) translate(-159,-39)"><g/></g><g transform="translate(159,39) matrix(1,0,0,1,0,0) translate(-159,-39)"><g/></g><g transform="translate(159,39) matrix(1,0,0,1,0,0) translate(-159,-39)"><g/><text fill="rgb(0, 0, 0)" stroke="none" font-family="&quot;Arial&quot;" font-size="24px" font-style="normal" font-weight="normal" text-decoration="" line-height="27px" x="28" y="21">RTP</text></g><g transform="translate(159,39) matrix(1,0,0,1,0,0) translate(-159,-39)"><g/></g></g></g></svg>
